<svg width="36" height="36" viewBox="0 0 36 36" fill="none" xmlns="http://www.w3.org/2000/svg">
<g filter="url(#filter0_i_18_2467)">
<path fill-rule="evenodd" clip-rule="evenodd" d="M23.625 1.125V6.75C23.625 9.23529 25.6397 11.25 28.125 11.25H34.862C34.8707 11.3632 34.875 11.4772 34.875 11.5916V25.875C34.875 30.8456 30.8456 34.875 25.875 34.875H10.125C5.15443 34.875 1.125 30.8456 1.125 25.875V10.125C1.125 5.15443 5.15443 1.125 10.125 1.125H23.625ZM24.1875 18C24.1875 18.6213 23.6838 19.125 23.0625 19.125H19.125V23.0625C19.125 23.6838 18.6213 24.1875 18 24.1875C17.3787 24.1875 16.875 23.6838 16.875 23.0625V19.125H12.9375C12.3162 19.125 11.8125 18.6213 11.8125 18C11.8125 17.3787 12.3162 16.875 12.9375 16.875H16.875V12.9375C16.875 12.3162 17.3787 11.8125 18 11.8125C18.6213 11.8125 19.125 12.3162 19.125 12.9375V16.875H23.0625C23.6838 16.875 24.1875 17.3787 24.1875 18Z" fill="url(#paint0_linear_18_2467)"/>
</g>
<path d="M25.875 1.54243V6.75C25.875 7.99262 26.8824 9 28.125 9H34.0538C33.877 8.74895 33.6736 8.51479 33.4454 8.30188L27.0527 2.33525C26.7015 2.00749 26.3034 1.74104 25.875 1.54243Z" fill="url(#paint1_linear_18_2467)"/>
<defs>
<filter id="filter0_i_18_2467" x="1.125" y="1.125" width="33.75" height="37.75" filterUnits="userSpaceOnUse" color-interpolation-filters="sRGB">
<feFlood flood-opacity="0" result="BackgroundImageFix"/>
<feBlend mode="normal" in="SourceGraphic" in2="BackgroundImageFix" result="shape"/>
<feColorMatrix in="SourceAlpha" type="matrix" values="0 0 0 0 0 0 0 0 0 0 0 0 0 0 0 0 0 0 127 0" result="hardAlpha"/>
<feOffset dy="4"/>
<feGaussianBlur stdDeviation="2"/>
<feComposite in2="hardAlpha" operator="arithmetic" k2="-1" k3="1"/>
<feColorMatrix type="matrix" values="0 0 0 0 0 0 0 0 0 0 0 0 0 0 0 0 0 0 0.25 0"/>
<feBlend mode="normal" in2="shape" result="effect1_innerShadow_18_2467"/>
</filter>
<linearGradient id="paint0_linear_18_2467" x1="44.2373" y1="41.6942" x2="14.3016" y2="6.67294" gradientUnits="userSpaceOnUse">
<stop offset="0.00265844" stop-color="#12D8FA"/>
<stop offset="1" stop-color="#005F6F"/>
</linearGradient>
<linearGradient id="paint1_linear_18_2467" x1="44.2373" y1="41.6942" x2="14.3016" y2="6.67294" gradientUnits="userSpaceOnUse">
<stop offset="0.00265844" stop-color="#15A4CB"/>
<stop offset="1" stop-color="#12D8FA"/>
</linearGradient>
</defs>
</svg>
