<svg id="Layer_1" viewBox="0 0 128 128" xmlns="http://www.w3.org/2000/svg" data-name="Layer 1"><path d="m59.28 84.05 2-1.91a7.93 7.93 0 0 1 -1.28-4.31l-14.26 13.56-8.44-8.84 13.5-12.81 3.47 3.63a2 2 0 0 0 2.83.07 2 2 0 0 0 .17-.2l-9.66-10.77-1.75 1.73a2 2 0 0 0 .48.87l1.66 1.77-12.07 11.49-2.15-2.26a2 2 0 1 0 -2.89 2.76l2.11 2.26a2 2 0 0 0 -.29.35c-.15.22-14.82 22.25-31.45 28.55a2 2 0 0 0 -.74 3.25l13.48 14.14a2 2 0 0 0 2.82.07l14.75-14a2 2 0 0 0 .62-1.38l.31-8.9 9.91-9.41 1.2 1.24 4.27 16.78a2 2 0 0 0 1 1.25 2.06 2.06 0 0 0 1.57.17l9.36-2.86a2 2 0 0 0 1.35-2.34l-2-11.1 5.05-4.8a2 2 0 0 0 .07-2.83zm-43.72 39.13-10.12-10.62c1.33-.63 2.64-1.34 3.92-2.11l9.32 9.77z"/><circle cx="47.53" cy="80.36" r="2.1" transform="matrix(.724 -.69 .69 .724 -42.33 55.01)"/><path d="m87 22a2 2 0 0 0 1.3-.46l1.52-1.3a2 2 0 1 0 -2.6-3l-1.52 1.3a2 2 0 0 0 1.3 3.46z"/><path d="m95.36 14.82a2 2 0 0 0 1.3-.46l5.65-4.84a2 2 0 1 0 -2.6-3l-5.65 4.84a2 2 0 0 0 1.3 3.5z"/><path d="m114.6 40.59-6.22 6.22a2 2 0 0 0 0 2.83 2 2 0 0 0 2.83 0l6.22-6.22a2 2 0 0 0 -2.83-2.83z"/><path d="m102 53.17-1.41 1.41a2 2 0 0 0 0 2.83 2 2 0 0 0 2.83 0l1.42-1.41a2 2 0 0 0 -2.84-2.83z"/><path d="m120.42 28.41 1.42-1.41a2 2 0 0 0 -2.84-2.83l-1.41 1.41a2 2 0 0 0 0 2.83 2 2 0 0 0 2.83 0z"/><path d="m65.15 50 4.23-4 11.51 12-2.16 2a7.87 7.87 0 0 1 4 1.71l2.35-2.23a2 2 0 0 0 .07-2.83l-1.76-1.84 18.25-17.33 1.22 1.28a5.55 5.55 0 0 0 4.05 1.69 6.41 6.41 0 0 0 4.4-1.78l.11-.1a6.43 6.43 0 0 0 2-4.46 5.52 5.52 0 0 0 -1.51-4l-1.21-1.27 1.3-1.07a2 2 0 1 0 -2.75-2.9l-1.25 1.13-3-3.18 20.39-19.37a2 2 0 1 0 -2.75-2.9l-5 4.77-3.69-3.87a2 2 0 1 0 -2.95 2.76l3.69 3.86-34.33 32.61-2.58-2.68 2.3-2.19a2 2 0 1 0 -2.75-2.9l-14.73 14.72zm42.71-18.29 1.22 1.28a1.55 1.55 0 0 1 .4 1.12 2.38 2.38 0 0 1 -.75 1.63l-.1.09a2 2 0 0 1 -2.81.24l-1.21-1.27zm-33 9.05 2.58 2.7-2.6 2.47-2.58-2.7z"/><circle cx="114.01" cy="115" r="2"/><path d="m29.18 66.08a6.43 6.43 0 0 0 4.58 1.92 6.24 6.24 0 0 0 4.41-1.8l6.77-6.7-8.61-9.61a13 13 0 1 1 14.67-12.89l8.64 7.93 6.51-6.45a6.36 6.36 0 0 0 0-9l-27.32-27.56a6.42 6.42 0 0 0 -6.2-1.71l-21.95 5.79a6.26 6.26 0 0 0 -4.41 4.4l-6.04 21.9a6.42 6.42 0 0 0 1.64 6.21z"/><path d="m126.25 108.8-45.68-43.61a3.93 3.93 0 0 0 -2.81-1.19 3.91 3.91 0 0 0 -2.35.79l-18-16.54-9.72-8.92a2 2 0 0 1 -.69-1.64c0-.25 0-.45 0-.64a9 9 0 1 0 -9.58 8.95 2 2 0 0 1 1.36.66l9 10 16.91 18.89a4 4 0 0 0 .44 5l43.74 45.64a5.88 5.88 0 0 0 4.2 1.78 5.87 5.87 0 0 0 4.18-1.74l9-9a6 6 0 0 0 0-8.43zm-88.25-66.8a5 5 0 0 1 -3.53-1.48 5 5 0 0 1 3.53-8.52 5 5 0 0 1 0 10zm4.5 2.79a8.59 8.59 0 0 0 2.63-2.31l27.4 25.11-5.05 5.07zm25.5 33 9.76-9.79 34.47 32.91-11.23 11.29zm55.43 36.69-9 9a1.8 1.8 0 0 1 -1.36.57 1.89 1.89 0 0 1 -1.34-.57l-8-8.35 11.38-11.38 8.31 7.94a2 2 0 0 1 .01 2.78z"/></svg>